<svg width="659" height="413" viewBox="0 0 659 413" fill="none" xmlns="http://www.w3.org/2000/svg">
<rect width="659" height="413" fill="#B08972"/>
<path fill-rule="evenodd" clip-rule="evenodd" d="M0.00271551 413C0.00090574 412.832 0 412.664 0 412.496C0 344.291 149.106 289 333.038 289C493.45 289 627.373 331.055 659 387.054V413H0.00271551Z" fill="#E8A972"/>
<rect width="11.1879" height="5.5864" rx="2.7932" transform="matrix(0.965582 -0.260098 0.257545 0.966266 134 358.067)" fill="#F1CBAA"/>
<rect width="11.1879" height="5.5864" rx="2.7932" transform="matrix(0.965582 -0.260098 0.257545 0.966266 324.912 389.886)" fill="#F1CBAA"/>
<rect width="11.1879" height="5.5864" rx="2.7932" transform="matrix(0.965582 -0.260098 0.257545 0.966266 228.394 364.126)" fill="#F1CBAA"/>
<rect width="11.2136" height="5.57366" rx="2.78683" transform="matrix(0.705236 -0.708973 0.705236 0.708973 158.355 377.753)" fill="#F1CBAA"/>
<rect width="11.2035" height="5.5787" rx="2.78935" transform="matrix(-0.817724 -0.575611 0.571542 -0.820573 173.495 354.21)" fill="#F1CBAA"/>
<rect width="11.2035" height="5.5787" rx="2.78935" transform="matrix(-0.817724 -0.575611 0.571542 -0.820573 272.575 366.232)" fill="#F1CBAA"/>
<rect width="11.2035" height="5.5787" rx="2.78935" transform="matrix(-0.817724 -0.575611 0.571542 -0.820573 334.073 349.058)" fill="#F1CBAA"/>
<rect width="11.2035" height="5.5787" rx="2.78935" transform="matrix(-0.817724 -0.575611 0.571542 -0.820573 237.555 340.472)" fill="#F1CBAA"/>
<rect width="11.2035" height="5.5787" rx="2.78935" transform="matrix(-0.817724 -0.575611 0.571542 -0.820573 470.735 370.525)" fill="#F1CBAA"/>
<rect width="11.2136" height="5.57366" rx="2.78683" transform="matrix(0.705236 -0.708973 0.705236 0.708973 357.369 327.95)" fill="#F1CBAA"/>
<rect width="11.2136" height="5.57366" rx="2.78683" transform="matrix(0.705236 -0.708973 0.705236 0.708973 268.539 387.198)" fill="#F1CBAA"/>
<rect width="11.2136" height="5.57366" rx="2.78683" transform="matrix(0.705236 -0.708973 0.705236 0.708973 425.7 386.339)" fill="#F1CBAA"/>
<rect width="11.2136" height="5.57366" rx="2.78683" transform="matrix(0.705236 -0.708973 0.705236 0.708973 507.697 350.275)" fill="#F1CBAA"/>
<rect width="11.1879" height="5.5864" rx="2.7932" transform="matrix(0.965582 -0.260098 0.257545 0.966266 294.163 326.344)" fill="#F1CBAA"/>
<rect width="11.1879" height="5.5864" rx="2.7932" transform="matrix(0.965582 -0.260098 0.257545 0.966266 363.348 352.963)" fill="#F1CBAA"/>
<rect width="11.1879" height="5.5864" rx="2.7932" transform="matrix(0.965582 -0.260098 0.257545 0.966266 455.595 332.355)" fill="#F1CBAA"/>
<rect width="11.1879" height="5.5864" rx="2.7932" transform="matrix(0.965582 -0.260098 0.257545 0.966266 513.676 377.006)" fill="#F1CBAA"/>
<path d="M509.664 136.177C504.726 135.243 504.511 126.08 510.669 124.314C512.292 123.849 514.22 124.038 515.896 124.038L524.442 124.055L539.698 124.186C542.51 124.828 545.256 124.674 547.153 127.43C548.971 130.07 547.641 134.143 545.257 135.774C543.614 136.899 541.975 136.784 540.133 136.799L534.629 136.835L519.359 136.803C516.356 136.802 512.477 137.536 509.664 136.177Z" fill="#683A2F"/>
<path d="M539.965 124.996L540.005 124.854C540.599 122.198 541.618 120.993 543.752 119.31C552.579 112.355 567.449 111.046 572.8 122.653C577.456 130.7 574.437 142.473 566.429 147.182L563.264 148.888C562.955 149.045 562.409 149.232 562.237 149.553L562.177 149.802L555.009 149.773C553.563 149.784 551.834 149.599 550.419 149.815L550.236 150C546.477 149.862 541.421 145.235 539.009 142.722C537.219 140.613 535.854 138.956 535 136.272L540.391 136.201C542.196 136.187 543.801 136.292 545.411 135.273C547.746 133.795 549.048 130.105 547.268 127.713C545.409 125.215 542.719 125.355 539.965 124.996Z" fill="#683A2F"/>
<path d="M426.731 173.288C428.408 172.956 430.124 173.005 431.813 173L495.038 173.006C504.291 173.066 510.765 175.434 512.769 185.423C514.175 192.425 508.965 199.27 502.482 201.226L500.143 201.776L435.919 201.997C431.741 201.992 427.537 202.088 423.392 201.481C418.81 200.108 414.881 195.58 414.261 190.833C412.692 183.066 418.373 173.589 426.731 173.288Z" fill="#683A2F"/>
<path d="M558.064 275.455C558.048 272.326 557.874 269.051 558.177 265.915C559.79 249.22 576.035 232.592 593.096 232.107C594.298 232.48 596.014 232.23 597.271 232.2C602.191 232.084 607.118 231.518 611.855 233.029C613.211 233.462 616.913 235.791 616.954 237.421C618.823 240.755 618.152 245.584 616.332 248.855C627.769 261.08 628.281 279.197 615.517 290.816C599.845 305.083 573.955 297.109 569.148 275.641L558.064 275.455Z" fill="#683A2F"/>
<path d="M558.064 275.813C558.048 272.659 557.874 269.356 558.177 266.195C559.788 249.362 576.015 232.597 593.057 232.108C594.257 232.484 595.971 232.232 597.226 232.202C602.142 232.084 607.063 231.514 611.794 233.038C613.149 233.474 616.847 235.822 616.887 237.466C618.754 240.827 618.084 245.696 616.266 248.994C614.506 247.389 612.65 246.293 610.575 245.167C602.045 241.385 592.444 240.748 584.171 245.773C572.976 252.575 567.296 262.976 569.127 276L558.064 275.813Z" fill="#683A2F"/>
<path d="M549.797 150.236C551.242 149.86 553.009 150.049 554.486 150.038L561.809 150.064L592 232.944C575.126 233.429 559.059 250.052 557.464 266.741C557.164 269.876 557.336 273.15 557.345 276.302L467.291 275.948C466.808 276.655 466.719 277.483 466.382 278.258C459.998 292.902 444.261 303.577 428.39 297.031L428.372 297.008C419.515 294.083 413.08 285.169 412.117 275.975C411.903 273.934 412.047 271.745 412.051 269.688C413.058 268.703 422.193 269.263 423.94 269.262L443.603 269.252L476.386 268.997C483.631 268.938 490.93 264.531 492.648 257.013C492.992 255.51 492.903 253.763 493.426 252.338C495.509 253.78 501.519 252.776 504.42 253.273C505.013 253.375 505.591 253.586 506.196 253.582L506.499 253.574C508.98 254.136 511.634 254.034 514.153 254.04L522.079 253.971C538.501 253.113 551.987 241.076 554.486 224.734C555.298 219.43 554.328 214.006 554.078 208.702L549.797 150.236Z" fill="#683A2F"/>
<path d="M423.511 202C427.678 202.609 431.906 202.516 436.106 202.52L500.679 202.469C500.282 203.113 500.216 204.097 500.008 204.968L496.361 217.581C494.825 222.349 491.314 232.055 492.988 236.731C493.495 238.148 494.56 239.373 495.5 240.536L503.603 250.04C504.597 251.161 505.633 252.389 507 253.081L506.695 253.048C506.087 253.052 505.506 252.845 504.91 252.746C501.994 252.261 495.952 253.24 493.859 251.835C493.333 253.224 493.422 254.927 493.077 256.392C491.35 263.72 484.013 268.017 476.73 268.074L443.777 268.323L424.011 268.332C422.255 268.334 413.073 267.787 412.073 268.748C401.772 270.675 395.404 261.23 397.349 251.816C398.705 245.25 401.693 238.904 403.982 232.599C408.707 219.584 408.388 215.301 419.108 205.638C420.524 204.362 421.904 203.046 423.511 202Z" fill="#683A2F"/>
<rect x="352" y="216" width="67" height="11" rx="5.5" fill="#FFAA00"/>
<rect x="337" y="233" width="82" height="12" rx="6" fill="#FFAA00"/>
</svg>
