<svg width="609" height="395" viewBox="0 0 609 395" fill="none" xmlns="http://www.w3.org/2000/svg">
<g clip-path="url(#clip0_791_780)">
<rect width="609" height="395" fill="#B08972"/>
<path d="M442.664 132.177C437.726 131.243 437.511 122.08 443.669 120.314C445.292 119.849 447.22 120.038 448.896 120.038L457.442 120.055L472.698 120.186C475.51 120.828 478.256 120.674 480.153 123.43C481.971 126.07 480.641 130.143 478.257 131.774C476.614 132.899 474.975 132.784 473.133 132.799L467.629 132.835L452.359 132.803C449.356 132.802 445.477 133.536 442.664 132.177Z" fill="#683A2F"/>
<path d="M472.965 120.996L473.005 120.854C473.599 118.198 474.618 116.993 476.752 115.31C485.579 108.355 500.449 107.046 505.8 118.653C510.456 126.7 507.437 138.473 499.429 143.182L496.264 144.888C495.955 145.045 495.409 145.232 495.237 145.553L495.177 145.802L488.009 145.773C486.563 145.784 484.834 145.599 483.419 145.815L483.236 146C479.477 145.862 474.421 141.235 472.009 138.722C470.219 136.613 468.854 134.956 468 132.272L473.391 132.201C475.196 132.187 476.801 132.292 478.411 131.273C480.746 129.795 482.048 126.105 480.268 123.713C478.409 121.215 475.719 121.355 472.965 120.996Z" fill="#683A2F"/>
<path d="M359.731 169.288C361.408 168.956 363.124 169.005 364.813 169L428.038 169.006C437.291 169.066 443.765 171.434 445.769 181.423C447.175 188.425 441.965 195.27 435.482 197.226L433.143 197.776L368.919 197.997C364.741 197.992 360.537 198.088 356.392 197.481C351.81 196.108 347.881 191.58 347.261 186.833C345.692 179.066 351.373 169.589 359.731 169.288Z" fill="#683A2F"/>
<path d="M491.064 271.455C491.048 268.326 490.874 265.051 491.177 261.915C492.79 245.22 509.035 228.592 526.096 228.107C527.298 228.48 529.014 228.23 530.271 228.2C535.191 228.084 540.118 227.518 544.855 229.029C546.211 229.462 549.913 231.791 549.954 233.421C551.823 236.755 551.152 241.584 549.332 244.855C560.769 257.08 561.281 275.197 548.517 286.816C532.845 301.083 506.955 293.109 502.148 271.641L491.064 271.455Z" fill="#683A2F"/>
<path d="M491.064 271.813C491.048 268.659 490.874 265.356 491.177 262.195C492.788 245.362 509.015 228.597 526.057 228.108C527.257 228.484 528.971 228.232 530.226 228.202C535.142 228.084 540.063 227.514 544.794 229.038C546.149 229.474 549.847 231.822 549.887 233.466C551.754 236.827 551.084 241.696 549.266 244.994C547.506 243.389 545.65 242.293 543.575 241.167C535.045 237.385 525.444 236.748 517.171 241.773C505.976 248.575 500.296 258.976 502.127 272L491.064 271.813Z" fill="#683A2F"/>
<path d="M482.797 146.236C484.242 145.86 486.009 146.049 487.486 146.038L494.809 146.064L525 228.944C508.126 229.429 492.059 246.052 490.464 262.741C490.164 265.876 490.336 269.15 490.345 272.302L400.291 271.948C399.808 272.655 399.719 273.483 399.382 274.258C392.998 288.902 377.261 299.577 361.39 293.031L361.372 293.008C352.515 290.083 346.08 281.169 345.117 271.975C344.903 269.934 345.047 267.745 345.051 265.688C346.058 264.703 355.193 265.263 356.94 265.262L376.603 265.252L409.386 264.997C416.631 264.938 423.93 260.531 425.648 253.013C425.992 251.51 425.903 249.763 426.426 248.338C428.509 249.78 434.519 248.776 437.42 249.273C438.013 249.375 438.591 249.586 439.196 249.582L439.499 249.574C441.98 250.136 444.634 250.034 447.153 250.04L455.079 249.971C471.501 249.113 484.987 237.076 487.486 220.734C488.298 215.43 487.328 210.006 487.078 204.702L482.797 146.236Z" fill="#683A2F"/>
<path d="M356.511 198C360.678 198.609 364.906 198.516 369.106 198.52L433.679 198.469C433.282 199.113 433.216 200.097 433.008 200.968L429.361 213.581C427.825 218.349 424.314 228.055 425.988 232.731C426.495 234.148 427.56 235.373 428.5 236.536L436.603 246.04C437.597 247.161 438.633 248.389 440 249.081L439.695 249.048C439.087 249.052 438.506 248.845 437.91 248.746C434.994 248.261 428.952 249.24 426.859 247.835C426.333 249.224 426.422 250.927 426.077 252.392C424.35 259.72 417.013 264.017 409.73 264.074L376.777 264.323L357.011 264.332C355.255 264.334 346.073 263.787 345.073 264.748C334.772 266.675 328.404 257.23 330.349 247.816C331.705 241.25 334.693 234.904 336.982 228.599C341.707 215.584 341.388 211.301 352.108 201.638C353.524 200.362 354.904 199.046 356.511 198Z" fill="#683A2F"/>
<ellipse cx="306.5" cy="414.5" rx="306.5" ry="122.5" fill="#E8A972"/>
<rect x="285" y="212" width="67" height="11" rx="5.5" fill="#FFAA00"/>
<rect x="270" y="229" width="82" height="12" rx="6" fill="#FFAA00"/>
<rect width="11.1065" height="4.99613" rx="2.49807" transform="matrix(0.972661 -0.232229 0.287973 0.957639 93.5162 346.545)" fill="#F1CBAA"/>
<rect width="11.1065" height="4.99613" rx="2.49807" transform="matrix(0.972661 -0.232229 0.287973 0.957639 284.428 374.747)" fill="#F1CBAA"/>
<rect width="11.1065" height="4.99613" rx="2.49807" transform="matrix(0.972661 -0.232229 0.287973 0.957639 187.91 351.915)" fill="#F1CBAA"/>
<rect width="10.5922" height="5.26481" rx="2.6324" transform="matrix(0.746608 -0.665265 0.746608 0.665265 117.871 363.993)" fill="#F1CBAA"/>
<rect width="10.7983" height="5.16037" rx="2.58018" transform="matrix(-0.84841 -0.52934 0.617875 -0.786277 133.011 343.126)" fill="#F1CBAA"/>
<rect width="10.7983" height="5.16037" rx="2.58018" transform="matrix(-0.84841 -0.52934 0.617875 -0.786277 232.091 353.781)" fill="#F1CBAA"/>
<rect width="10.7983" height="5.16037" rx="2.58018" transform="matrix(-0.84841 -0.52934 0.617875 -0.786277 293.589 338.56)" fill="#F1CBAA"/>
<rect width="10.7983" height="5.16037" rx="2.58018" transform="matrix(-0.84841 -0.52934 0.617875 -0.786277 197.072 330.949)" fill="#F1CBAA"/>
<rect width="10.7983" height="5.16037" rx="2.58018" transform="matrix(-0.84841 -0.52934 0.617875 -0.786277 430.251 357.587)" fill="#F1CBAA"/>
<rect width="10.5922" height="5.26481" rx="2.6324" transform="matrix(0.746608 -0.665265 0.746608 0.665265 316.885 319.85)" fill="#F1CBAA"/>
<rect width="10.5922" height="5.26481" rx="2.6324" transform="matrix(0.746608 -0.665265 0.746608 0.665265 228.055 372.365)" fill="#F1CBAA"/>
<rect width="10.5922" height="5.26481" rx="2.6324" transform="matrix(0.746608 -0.665265 0.746608 0.665265 385.216 371.604)" fill="#F1CBAA"/>
<rect width="10.5922" height="5.26481" rx="2.6324" transform="matrix(0.746608 -0.665265 0.746608 0.665265 467.213 339.638)" fill="#F1CBAA"/>
<rect width="11.1065" height="4.99613" rx="2.49807" transform="matrix(0.972661 -0.232229 0.287973 0.957639 253.679 318.427)" fill="#F1CBAA"/>
<rect width="11.1065" height="4.99613" rx="2.49807" transform="matrix(0.972661 -0.232229 0.287973 0.957639 322.864 342.021)" fill="#F1CBAA"/>
<rect width="11.1065" height="4.99613" rx="2.49807" transform="matrix(0.972661 -0.232229 0.287973 0.957639 415.111 323.755)" fill="#F1CBAA"/>
<rect width="11.1065" height="4.99613" rx="2.49807" transform="matrix(0.972661 -0.232229 0.287973 0.957639 473.192 363.331)" fill="#F1CBAA"/>
</g>
<defs>
<clipPath id="clip0_791_780">
<rect width="609" height="395" fill="white"/>
</clipPath>
</defs>
</svg>
